<svg width="10" height="18" viewBox="0 0 24 22" fill="none" xmlns="http://www.w3.org/2000/svg">
<g clip-path="url(#clip0)">
<path d="M23.3342 1.33585C23.2525 1.33585 23.1683 1.35126 23.0858 1.38418L16.0004 4.00251H16L8.83333 1.47251C8.56135 1.38211 8.27661 1.33596 7.99 1.33585C7.71125 1.33585 7.43292 1.3796 7.16458 1.46668L0.838333 3.6671C0.590908 3.76606 0.378804 3.93688 0.229379 4.15753C0.0799536 4.37818 5.92587e-05 4.63853 0 4.90501L0 19.335C0 19.7179 0.31375 20.0025 0.66625 20.0025C0.747917 20.0025 0.831667 19.9871 0.914583 19.9542L8 17.3358L15.1667 19.8654C15.7079 20.046 16.2928 20.0482 16.8354 19.8717L23.1617 17.6713C23.4091 17.5723 23.6213 17.4015 23.7707 17.1809C23.9201 16.9602 24 16.6998 24 16.4333V2.00335C24 1.62043 23.6863 1.33585 23.3342 1.33585ZM9.33333 3.77001L14.6667 5.65293V17.5683L9.33333 15.6854V3.77001ZM2 17.4213V5.38043L7.33333 3.52501V15.45L7.30667 15.4596L2 17.4213ZM22 15.9575L16.6667 17.8129V5.88835L16.6933 5.87835L22 3.9171V15.9575Z" fill="white"/>
</g>
<defs>
<clipPath id="clip0">
<rect width="21.3382" height="24" fill="white" transform="translate(0 21.3382) rotate(-90)"/>
</clipPath>
</defs>
</svg>
